<svg width="495" height="410" viewBox="0 0 495 410" fill="none" xmlns="http://www.w3.org/2000/svg">
<path d="M446.086 167.221V316.807H321.638V155.714L446.086 167.221Z" fill="#86B4CC"/>
<path d="M183.362 155.714V316.807H58.9138V167.221L183.362 155.714Z" fill="#86B4CC"/>
<path d="M169.534 155.714H335.466V316.807H169.534V155.714Z" fill="#A1C8D3"/>
<path d="M231.759 230.507H273.241C277.06 230.507 280.155 233.083 280.155 236.26V305.3H224.845V236.26C224.845 233.083 227.94 230.507 231.759 230.507Z" fill="#567580"/>
<path d="M231.759 207.494C227.94 207.494 224.845 204.918 224.845 201.741V190.234C224.845 187.056 227.94 184.481 231.759 184.481C235.577 184.481 238.672 187.056 238.672 190.234V201.741C238.672 204.918 235.577 207.494 231.759 207.494Z" fill="#464F5E"/>
<path d="M134.966 213.247C131.147 213.247 128.052 210.671 128.052 207.494V195.987C128.052 192.81 131.147 190.234 134.966 190.234C138.784 190.234 141.879 192.81 141.879 195.987V207.494C141.879 210.671 138.784 213.247 134.966 213.247Z" fill="#464F5E"/>
<path d="M93.4828 213.247C89.6644 213.247 86.569 210.671 86.569 207.494V195.987C86.569 192.81 89.6644 190.234 93.4828 190.234C97.3011 190.234 100.397 192.81 100.397 195.987V207.494C100.397 210.671 97.3011 213.247 93.4828 213.247Z" fill="#464F5E"/>
<path d="M134.966 247.767C131.147 247.767 128.052 245.191 128.052 242.014V230.507C128.052 227.33 131.147 224.754 134.966 224.754C138.784 224.754 141.879 227.33 141.879 230.507V242.014C141.879 245.191 138.784 247.767 134.966 247.767Z" fill="#464F5E"/>
<path d="M93.4828 247.767C89.6644 247.767 86.569 245.191 86.569 242.014V230.507C86.569 227.33 89.6644 224.754 93.4828 224.754C97.3011 224.754 100.397 227.33 100.397 230.507V242.014C100.397 245.191 97.3011 247.767 93.4828 247.767Z" fill="#464F5E"/>
<path d="M134.966 282.287C131.147 282.287 128.052 279.711 128.052 276.533V265.027C128.052 261.849 131.147 259.274 134.966 259.274C138.784 259.274 141.879 261.849 141.879 265.027V276.533C141.879 279.711 138.784 282.287 134.966 282.287Z" fill="#464F5E"/>
<path d="M93.4828 282.287C89.6644 282.287 86.569 279.711 86.569 276.533V265.027C86.569 261.849 89.6644 259.274 93.4828 259.274C97.3011 259.274 100.397 261.849 100.397 265.027V276.533C100.397 279.711 97.3011 282.287 93.4828 282.287Z" fill="#464F5E"/>
<path d="M411.517 213.247C407.699 213.247 404.603 210.671 404.603 207.494V195.987C404.603 192.81 407.699 190.234 411.517 190.234C415.336 190.234 418.431 192.81 418.431 195.987V207.494C418.431 210.671 415.336 213.247 411.517 213.247Z" fill="#464F5E"/>
<path d="M370.034 213.247C366.216 213.247 363.121 210.671 363.121 207.494V195.987C363.121 192.81 366.216 190.234 370.034 190.234C373.853 190.234 376.948 192.81 376.948 195.987V207.494C376.948 210.671 373.853 213.247 370.034 213.247Z" fill="#464F5E"/>
<path d="M411.517 247.767C407.699 247.767 404.603 245.191 404.603 242.014V230.507C404.603 227.33 407.699 224.754 411.517 224.754C415.336 224.754 418.431 227.33 418.431 230.507V242.014C418.431 245.191 415.336 247.767 411.517 247.767Z" fill="#464F5E"/>
<path d="M370.034 247.767C366.216 247.767 363.121 245.191 363.121 242.014V230.507C363.121 227.33 366.216 224.754 370.034 224.754C373.853 224.754 376.948 227.33 376.948 230.507V242.014C376.948 245.191 373.853 247.767 370.034 247.767Z" fill="#464F5E"/>
<path d="M411.517 282.287C407.699 282.287 404.603 279.711 404.603 276.533V265.027C404.603 261.849 407.699 259.274 411.517 259.274C415.336 259.274 418.431 261.849 418.431 265.027V276.533C418.431 279.711 415.336 282.287 411.517 282.287Z" fill="#464F5E"/>
<path d="M370.034 282.287C366.216 282.287 363.121 279.711 363.121 276.533V265.027C363.121 261.849 366.216 259.274 370.034 259.274C373.853 259.274 376.948 261.849 376.948 265.027V276.533C376.948 279.711 373.853 282.287 370.034 282.287Z" fill="#464F5E"/>
<path d="M273.241 207.494C269.423 207.494 266.328 204.918 266.328 201.741V190.234C266.328 187.056 269.423 184.481 273.241 184.481C277.06 184.481 280.155 187.056 280.155 190.234V201.741C280.155 204.918 277.06 207.494 273.241 207.494Z" fill="#464F5E"/>
<path d="M446.086 305.3H58.9138C55.0954 305.3 52 307.876 52 311.053V322.56C52 325.737 55.0954 328.313 58.9138 328.313H155.707C155.707 331.491 158.802 334.066 162.621 334.066H342.379C346.198 334.066 349.293 331.491 349.293 328.313H446.086C449.905 328.313 453 325.737 453 322.56V311.053C453 307.876 449.905 305.3 446.086 305.3Z" fill="#EDC100"/>
<path d="M349.293 305.3V328.313C349.293 331.491 346.198 334.066 342.379 334.066H162.621C158.802 334.066 155.707 331.491 155.707 328.313V305.3H349.293Z" fill="#F8E8AB"/>
<path d="M314.724 26.9553V98.1811H190.276V26.9553L250.772 46.9307C251.888 47.2703 253.112 47.2703 254.228 46.9307L314.724 26.9553Z" fill="#393F4B"/>
<path d="M429.147 139.087C426.812 135.177 422.019 132.703 416.772 132.701H363.121V121.194L325.717 90.069C323.116 87.8972 319.584 86.6759 315.899 86.6745H182.947C178.831 86.6568 174.923 88.1773 172.3 90.8169L141.879 121.194V132.701H88.2283C82.9811 132.703 78.1876 135.177 75.8526 139.087L58.9138 167.221H446.086L429.147 139.087Z" fill="#4397D5"/>
<path d="M363.121 121.194V138.454C363.121 141.632 360.025 144.208 356.207 144.208H148.793C144.975 144.208 141.879 141.632 141.879 138.454V121.194H363.121Z" fill="#2B5781"/>
<path d="M155.707 144.208H349.293V167.221H155.707V144.208Z" fill="#3180BC"/>
<path d="M349.293 26.2649C349.38 28.8957 347.249 31.2204 344.177 31.8456L335.466 33.8017L314.724 38.4618L254.228 51.9821C253.093 52.2122 251.907 52.2122 250.772 51.9821L190.276 38.4618L160.823 31.8456C157.747 31.2041 155.59 28.9036 155.59 26.2649C155.59 23.6261 157.747 21.3256 160.823 20.6842L250.772 0.547604C251.907 0.317547 253.093 0.317547 254.228 0.547604L335.466 18.728L344.177 20.6842C347.249 21.3093 349.38 23.634 349.293 26.2649V26.2649Z" fill="#464F5E"/>
<path d="M354.478 66.8256C353.206 68.433 351.053 69.4047 348.74 69.4146C347.381 69.4279 346.051 69.0858 344.937 68.4366C339.012 65.1861 335.452 59.6714 335.465 53.7656V33.8017L344.177 31.8456C347.249 31.2204 349.38 28.8957 349.293 26.2649V53.7656C349.294 55.8282 350.541 57.7522 352.612 58.8861C354.135 59.7255 355.191 61.0384 355.542 62.5307C355.893 64.0231 355.51 65.5702 354.478 66.8256Z" fill="#EDC100"/>
<rect y="303" width="495" height="107" fill="#4397D5"/>
<path d="M95.4143 373.336C90.3369 373.336 86.3796 371.88 83.5423 368.968C80.7049 366.056 79.2863 361.819 79.2863 356.256V333.8H83.4303V356.088C83.4303 360.643 84.4569 364.04 86.5103 366.28C88.5636 368.52 91.5316 369.64 95.4143 369.64C99.3343 369.64 102.321 368.52 104.374 366.28C106.428 364.04 107.454 360.643 107.454 356.088V333.8H111.486V356.256C111.486 361.819 110.068 366.056 107.23 368.968C104.43 371.88 100.492 373.336 95.4143 373.336ZM156.734 333.8V373H153.318L128.118 341.192V373H123.974V333.8H127.39L152.646 365.608V333.8H156.734ZM169.529 333.8H173.673V373H169.529V333.8ZM218.581 333.8L201.221 373H197.133L179.773 333.8H184.253L199.261 367.848L214.381 333.8H218.581ZM251.991 369.416V373H224.271V333.8H251.151V337.384H228.415V351.328H248.687V354.856H228.415V369.416H251.991ZM288.5 373L279.54 360.4C278.532 360.512 277.486 360.568 276.404 360.568H265.876V373H261.732V333.8H276.404C281.406 333.8 285.326 334.995 288.164 337.384C291.001 339.773 292.42 343.059 292.42 347.24C292.42 350.301 291.636 352.896 290.068 355.024C288.537 357.115 286.334 358.627 283.46 359.56L293.036 373H288.5ZM276.292 357.04C280.174 357.04 283.142 356.181 285.196 354.464C287.249 352.747 288.276 350.339 288.276 347.24C288.276 344.067 287.249 341.64 285.196 339.96C283.142 338.243 280.174 337.384 276.292 337.384H265.876V357.04H276.292ZM313.008 373.336C310.096 373.336 307.296 372.869 304.608 371.936C301.958 371.003 299.904 369.771 298.448 368.24L300.072 365.048C301.491 366.467 303.376 367.624 305.728 368.52C308.08 369.379 310.507 369.808 313.008 369.808C316.518 369.808 319.15 369.173 320.904 367.904C322.659 366.597 323.536 364.917 323.536 362.864C323.536 361.296 323.051 360.045 322.08 359.112C321.147 358.179 319.99 357.469 318.608 356.984C317.227 356.461 315.304 355.901 312.84 355.304C309.891 354.557 307.539 353.848 305.784 353.176C304.03 352.467 302.518 351.403 301.248 349.984C300.016 348.565 299.4 346.643 299.4 344.216C299.4 342.237 299.923 340.445 300.968 338.84C302.014 337.197 303.619 335.891 305.784 334.92C307.95 333.949 310.638 333.464 313.848 333.464C316.088 333.464 318.272 333.781 320.4 334.416C322.566 335.013 324.432 335.853 326 336.936L324.6 340.24C322.958 339.157 321.203 338.355 319.336 337.832C317.47 337.272 315.64 336.992 313.848 336.992C310.414 336.992 307.819 337.664 306.064 339.008C304.347 340.315 303.488 342.013 303.488 344.104C303.488 345.672 303.955 346.941 304.888 347.912C305.859 348.845 307.054 349.573 308.472 350.096C309.928 350.581 311.87 351.123 314.296 351.72C317.171 352.429 319.486 353.139 321.24 353.848C323.032 354.52 324.544 355.565 325.776 356.984C327.008 358.365 327.624 360.251 327.624 362.64C327.624 364.619 327.083 366.429 326 368.072C324.955 369.677 323.331 370.965 321.128 371.936C318.926 372.869 316.219 373.336 313.008 373.336ZM336.654 333.8H340.798V373H336.654V333.8ZM378.136 362.528H356.296L351.592 373H347.28L365.2 333.8H369.288L387.208 373H382.84L378.136 362.528ZM376.624 359.168L367.216 338.112L357.808 359.168H376.624ZM404.501 373.336C401.589 373.336 398.789 372.869 396.101 371.936C393.45 371.003 391.397 369.771 389.941 368.24L391.565 365.048C392.983 366.467 394.869 367.624 397.221 368.52C399.573 369.379 401.999 369.808 404.501 369.808C408.01 369.808 410.642 369.173 412.397 367.904C414.151 366.597 415.029 364.917 415.029 362.864C415.029 361.296 414.543 360.045 413.573 359.112C412.639 358.179 411.482 357.469 410.101 356.984C408.719 356.461 406.797 355.901 404.333 355.304C401.383 354.557 399.031 353.848 397.277 353.176C395.522 352.467 394.01 351.403 392.741 349.984C391.509 348.565 390.893 346.643 390.893 344.216C390.893 342.237 391.415 340.445 392.461 338.84C393.506 337.197 395.111 335.891 397.277 334.92C399.442 333.949 402.13 333.464 405.341 333.464C407.581 333.464 409.765 333.781 411.893 334.416C414.058 335.013 415.925 335.853 417.493 336.936L416.093 340.24C414.45 339.157 412.695 338.355 410.829 337.832C408.962 337.272 407.133 336.992 405.341 336.992C401.906 336.992 399.311 337.664 397.557 339.008C395.839 340.315 394.981 342.013 394.981 344.104C394.981 345.672 395.447 346.941 396.381 347.912C397.351 348.845 398.546 349.573 399.965 350.096C401.421 350.581 403.362 351.123 405.789 351.72C408.663 352.429 410.978 353.139 412.733 353.848C414.525 354.52 416.037 355.565 417.269 356.984C418.501 358.365 419.117 360.251 419.117 362.64C419.117 364.619 418.575 366.429 417.493 368.072C416.447 369.677 414.823 370.965 412.621 371.936C410.418 372.869 407.711 373.336 404.501 373.336Z" fill="#F0ECEC"/>
</svg>
