<?xml version="1.0" encoding="utf-8"?>
<!-- Generator: Adobe Illustrator 23.0.2, SVG Export Plug-In . SVG Version: 6.00 Build 0)  -->
<svg version="1.1" id="Layer_1" xmlns="http://www.w3.org/2000/svg" xmlns:xlink="http://www.w3.org/1999/xlink" x="0px" y="0px"
	 viewBox="0 0 165.8 93.2" style="enable-background:new 0 0 165.8 93.2;" xml:space="preserve">
<style type="text/css">
	.st0{fill:#0F0708;}
	.st1{fill:#AEA5A3;}
</style>
<g>
	<path class="st0" d="M6,75.6H0v-4.1h16.7v4.1h-6v17H6V75.6z"/>
	<path class="st0" d="M17.6,71.5h4.7v7.9h9.1v-7.9H36v21.1h-4.7v-9.1h-9.1v9.1h-4.7V71.5z"/>
	<path class="st0" d="M37.8,82.1c0-1.7,0.3-3.2,0.9-4.6c0.6-1.4,1.4-2.5,2.4-3.5c1-1,2.2-1.7,3.6-2.2c1.4-0.5,2.9-0.8,4.6-0.8
		c1.7,0,3.2,0.3,4.6,0.8c1.4,0.5,2.6,1.3,3.6,2.2c1,1,1.8,2.1,2.4,3.5c0.6,1.4,0.9,2.9,0.9,4.6s-0.3,3.2-0.9,4.6
		c-0.6,1.4-1.4,2.5-2.4,3.5c-1,1-2.2,1.7-3.6,2.2c-1.4,0.5-2.9,0.8-4.6,0.8c-1.7,0-3.2-0.3-4.6-0.8c-1.4-0.5-2.6-1.3-3.6-2.2
		c-1-1-1.8-2.1-2.4-3.5C38.1,85.3,37.8,83.8,37.8,82.1z M42.6,82.1c0,1,0.2,1.9,0.5,2.7c0.3,0.8,0.8,1.5,1.3,2.2
		c0.6,0.6,1.3,1.1,2.1,1.4c0.8,0.3,1.7,0.5,2.7,0.5c1,0,1.9-0.2,2.7-0.5c0.8-0.3,1.5-0.8,2.1-1.4s1-1.3,1.3-2.2s0.5-1.7,0.5-2.7
		c0-1-0.2-1.9-0.5-2.7c-0.3-0.8-0.8-1.6-1.3-2.2s-1.3-1.1-2.1-1.4c-0.8-0.3-1.7-0.5-2.7-0.5c-1,0-1.9,0.2-2.7,0.5
		c-0.8,0.3-1.5,0.8-2.1,1.4c-0.6,0.6-1,1.3-1.3,2.2C42.8,80.2,42.6,81.1,42.6,82.1z"/>
	<path class="st0" d="M62.4,71.5h7l4.9,13.8h0.1l4.9-13.8h7v21.1h-4.7V76.4h-0.1l-5.6,16.2h-3.6l-5.3-16.2h-0.1v16.2h-4.7V71.5z"/>
	<path class="st0" d="M89.3,71.5h7.9c1.1,0,2.1,0.1,3.1,0.3c1,0.2,1.8,0.5,2.6,1c0.7,0.5,1.3,1.1,1.7,2c0.4,0.8,0.6,1.9,0.6,3.1
		c0,1.2-0.2,2.3-0.6,3.1c-0.4,0.8-0.9,1.5-1.6,2c-0.7,0.5-1.5,0.9-2.5,1.1c-1,0.2-2,0.3-3.1,0.3h-3.4v8.2h-4.7V71.5z M93.9,80.5H97
		c0.4,0,0.8,0,1.2-0.1c0.4-0.1,0.7-0.2,1-0.4c0.3-0.2,0.6-0.4,0.7-0.8c0.2-0.3,0.3-0.7,0.3-1.2c0-0.5-0.1-1-0.4-1.3
		c-0.2-0.3-0.6-0.6-1-0.8c-0.4-0.2-0.8-0.3-1.3-0.3c-0.5,0-0.9-0.1-1.4-0.1h-2.4V80.5z"/>
	<path class="st0" d="M117.2,76.7c-0.4-0.5-0.9-0.8-1.5-1.1c-0.6-0.2-1.3-0.3-1.8-0.3c-0.3,0-0.7,0-1,0.1c-0.4,0.1-0.7,0.2-1,0.4
		c-0.3,0.2-0.6,0.4-0.8,0.7s-0.3,0.6-0.3,1c0,0.6,0.2,1.1,0.7,1.5c0.5,0.3,1.1,0.6,1.8,0.9c0.7,0.2,1.5,0.5,2.3,0.7
		c0.8,0.2,1.6,0.6,2.3,1c0.7,0.4,1.3,1,1.8,1.8c0.5,0.7,0.7,1.7,0.7,3c0,1.2-0.2,2.2-0.7,3.1c-0.4,0.9-1,1.6-1.8,2.2
		c-0.7,0.6-1.6,1-2.6,1.3c-1,0.3-2,0.4-3.1,0.4c-1.4,0-2.6-0.2-3.8-0.6c-1.2-0.4-2.3-1.1-3.3-2l3.3-3.6c0.5,0.6,1.1,1.1,1.8,1.5
		c0.7,0.3,1.5,0.5,2.3,0.5c0.4,0,0.8,0,1.2-0.1c0.4-0.1,0.7-0.2,1-0.4c0.3-0.2,0.6-0.4,0.7-0.7c0.2-0.3,0.3-0.6,0.3-1
		c0-0.6-0.2-1.1-0.7-1.5s-1.1-0.7-1.8-0.9c-0.7-0.3-1.5-0.5-2.4-0.8c-0.9-0.3-1.7-0.6-2.4-1c-0.7-0.4-1.3-1-1.8-1.7
		c-0.5-0.7-0.7-1.7-0.7-2.8c0-1.1,0.2-2.1,0.7-3c0.4-0.9,1-1.6,1.8-2.2c0.7-0.6,1.6-1,2.6-1.3c1-0.3,2-0.4,3-0.4
		c1.2,0,2.3,0.2,3.5,0.5c1.1,0.3,2.1,0.9,3,1.7L117.2,76.7z"/>
	<path class="st0" d="M121.1,82.1c0-1.7,0.3-3.2,0.9-4.6c0.6-1.4,1.4-2.5,2.4-3.5c1-1,2.2-1.7,3.6-2.2c1.4-0.5,2.9-0.8,4.6-0.8
		c1.7,0,3.2,0.3,4.6,0.8c1.4,0.5,2.6,1.3,3.6,2.2c1,1,1.8,2.1,2.4,3.5c0.6,1.4,0.9,2.9,0.9,4.6s-0.3,3.2-0.9,4.6
		c-0.6,1.4-1.4,2.5-2.4,3.5c-1,1-2.2,1.7-3.6,2.2c-1.4,0.5-2.9,0.8-4.6,0.8c-1.7,0-3.2-0.3-4.6-0.8c-1.4-0.5-2.6-1.3-3.6-2.2
		c-1-1-1.8-2.1-2.4-3.5C121.4,85.3,121.1,83.8,121.1,82.1z M126,82.1c0,1,0.2,1.9,0.5,2.7s0.8,1.5,1.3,2.2c0.6,0.6,1.3,1.1,2.1,1.4
		c0.8,0.3,1.7,0.5,2.7,0.5c1,0,1.9-0.2,2.7-0.5s1.5-0.8,2.1-1.4c0.6-0.6,1-1.3,1.3-2.2s0.5-1.7,0.5-2.7c0-1-0.2-1.9-0.5-2.7
		c-0.3-0.8-0.8-1.6-1.3-2.2c-0.6-0.6-1.3-1.1-2.1-1.4s-1.7-0.5-2.7-0.5c-1,0-1.9,0.2-2.7,0.5c-0.8,0.3-1.5,0.8-2.1,1.4
		c-0.6,0.6-1,1.3-1.3,2.2C126.1,80.2,126,81.1,126,82.1z"/>
	<path class="st0" d="M145.8,71.5h6.3l9,14.7h0.1V71.5h4.7v21.1h-6.1l-9.2-15.1h-0.1v15.1h-4.7V71.5z"/>
</g>
<rect x="100.7" y="0.3" transform="matrix(0.866 -0.5 0.5 0.866 -1.0907 59.0368)" class="st1" width="17.9" height="62.6"/>
<rect x="45.9" y="0.6" class="st1" width="17.9" height="62.6"/>
<rect x="68.4" y="0.6" class="st1" width="17.9" height="62.6"/>
</svg>
